<?xml version="1.0" standalone="no"?>
<!DOCTYPE svg PUBLIC "-//W3C//DTD SVG 20010904//EN"
 "http://www.w3.org/TR/2001/REC-SVG-20010904/DTD/svg10.dtd">
<svg version="1.0" xmlns="http://www.w3.org/2000/svg"
 width="1024.000000pt" height="1024.000000pt" viewBox="0 0 1024.000000 1024.000000"
 preserveAspectRatio="xMidYMid meet">
<metadata>
Created by potrace 1.16, written by Peter Selinger 2001-2019
</metadata>
<g transform="translate(0.000000,1024.000000) scale(0.100000,-0.100000)"
fill="#000000" stroke="none">
<path d="M0 5120 l0 -5120 5120 0 5120 0 0 5120 0 5120 -5120 0 -5120 0 0
-5120z m5318 3214 c337 -112 633 -527 829 -1158 18 -60 35 -111 36 -112 2 -2
27 3 57 11 107 29 357 74 495 90 167 19 444 22 578 5 l97 -12 34 30 c49 43
110 77 186 103 96 33 257 33 358 0 388 -127 506 -580 223 -862 -107 -107 -239
-159 -401 -159 -161 0 -291 52 -400 159 -120 119 -175 276 -150 432 6 40 13
75 15 79 24 39 -455 22 -715 -26 -95 -17 -313 -64 -318 -69 -2 -1 10 -67 27
-146 42 -205 100 -595 101 -676 0 -7 46 -44 103 -81 132 -90 321 -230 473
-354 67 -54 126 -98 132 -98 23 0 330 340 428 476 l20 28 95 -59 c52 -32 96
-60 98 -62 15 -11 -167 -231 -328 -395 l-144 -148 136 -140 c402 -415 607
-781 607 -1085 0 -351 -260 -575 -727 -626 -140 -15 -426 -6 -605 20 -135 20
-349 61 -418 81 -19 5 -40 10 -47 10 -6 0 -28 -53 -48 -117 -112 -356 -284
-697 -440 -870 l-47 -53 12 -70 c59 -352 -267 -659 -639 -601 -302 47 -509
316 -461 598 35 209 209 389 418 432 68 14 196 14 264 0 71 -15 183 -69 237
-115 l43 -38 19 25 c99 124 219 352 302 569 56 147 103 297 96 304 -2 2 -67
24 -144 48 -167 54 -371 130 -552 205 l-133 56 -132 -56 c-181 -75 -384 -150
-552 -204 -78 -25 -143 -47 -145 -49 -15 -13 125 -395 196 -537 l44 -88 -107
-50 c-59 -27 -108 -48 -110 -46 -2 2 -26 51 -53 109 -56 119 -136 330 -176
461 -14 48 -32 87 -38 87 -7 0 -28 -5 -47 -10 -69 -20 -283 -61 -418 -81 -179
-26 -465 -35 -605 -20 -466 51 -726 274 -727 624 0 304 204 671 607 1087 l136
140 -144 148 c-256 261 -437 516 -524 734 l-27 67 -63 21 c-187 62 -327 228
-356 422 -44 280 162 542 462 589 369 57 692 -243 640 -593 -29 -190 -175
-359 -361 -419 l-70 -23 49 -93 c92 -174 240 -366 447 -581 60 -62 114 -112
119 -112 6 0 48 32 95 71 119 99 378 294 504 378 58 39 106 77 106 84 1 81 59
471 101 676 17 79 29 145 27 146 -6 6 -239 55 -348 74 -108 18 -288 41 -326
41 -15 0 -16 11 -11 107 4 58 9 109 12 111 15 16 443 -47 633 -93 54 -13 98
-22 99 -21 2 1 16 46 32 98 181 605 477 1032 803 1162 36 14 90 30 120 35 85
16 218 5 306 -25z"/>
<path d="M5052 8140 c-90 -19 -173 -70 -273 -170 -138 -136 -238 -295 -344
-544 -53 -123 -148 -402 -143 -417 2 -5 96 -41 210 -79 114 -38 296 -106 405
-151 109 -45 205 -81 213 -81 8 0 105 37 215 82 110 45 292 113 405 151 113
37 206 73 208 78 5 15 -90 294 -143 417 -156 367 -358 620 -554 695 -59 22
-144 30 -199 19z"/>
<path d="M2362 7089 c-58 -11 -137 -56 -174 -98 -17 -19 -42 -59 -56 -89 -21
-46 -24 -65 -20 -126 6 -87 29 -136 95 -197 131 -123 325 -119 454 10 70 70
94 133 87 226 -11 137 -111 243 -256 274 -59 12 -69 12 -130 0z"/>
<path d="M7735 7086 c-139 -35 -232 -139 -243 -271 -7 -93 17 -156 87 -226
157 -156 406 -123 518 69 39 67 44 171 11 244 -35 76 -80 123 -151 157 -73 35
-152 45 -222 27z"/>
<path d="M4221 6743 c-19 -70 -59 -287 -75 -403 -9 -63 -18 -128 -21 -144 -4
-22 -2 -26 8 -18 27 21 309 179 501 281 l204 107 -132 51 c-130 51 -396 144
-448 157 -25 6 -28 3 -37 -31z"/>
<path d="M5795 6711 c-110 -37 -244 -85 -297 -106 l-96 -39 203 -107 c193
-102 475 -260 502 -281 10 -8 12 -4 8 18 -2 16 -12 79 -21 139 -31 219 -79
445 -92 445 -5 0 -98 -31 -207 -69z"/>
<path d="M4849 6312 c-240 -121 -441 -233 -661 -368 l-96 -59 -9 -135 c-10
-172 -10 -686 1 -852 l8 -128 137 -84 c213 -130 446 -258 679 -373 l213 -105
232 116 c266 132 611 326 600 336 -4 4 -63 29 -130 54 l-122 47 -46 -31 c-102
-70 -108 -71 -578 -68 l-422 3 -65 32 c-107 52 -177 132 -210 239 -18 60 -20
93 -20 374 0 280 2 314 20 373 24 78 79 155 150 208 93 70 110 72 518 77 390
4 459 -1 547 -42 72 -33 158 -120 193 -193 l27 -58 3 -306 3 -307 85 -32 84
-32 0 -159 c0 -87 3 -159 6 -159 4 0 39 20 79 45 l73 46 8 127 c11 167 11 681
0 852 l-8 135 -97 60 c-273 170 -886 495 -932 495 -9 0 -130 -58 -270 -128z"/>
<path d="M3673 5592 c-94 -71 -207 -159 -251 -196 l-81 -67 37 -33 c84 -74
451 -356 464 -356 1 0 3 176 3 390 0 215 0 390 0 390 -1 0 -78 -58 -172 -128z"/>
<path d="M6395 5329 c0 -214 1 -389 3 -389 8 0 208 150 332 249 80 64 151 121
159 127 11 8 -7 28 -90 96 -94 77 -296 231 -374 285 l-30 21 0 -389z"/>
<path d="M4826 5570 c-40 -13 -74 -47 -86 -89 -13 -47 -13 -296 0 -343 6 -20
24 -48 41 -62 30 -26 32 -26 214 -26 l184 0 3 129 3 129 110 -43 c61 -23 120
-45 133 -49 l22 -7 0 139 c0 128 -2 142 -23 173 -13 19 -38 39 -57 46 -41 14
-498 16 -544 3z"/>
<path d="M3029 5032 c-443 -455 -629 -856 -509 -1093 28 -54 104 -123 173
-157 239 -118 619 -121 1138 -11 81 17 152 34 158 38 8 6 5 39 -14 125 -32
149 -69 379 -91 566 l-17 145 -94 64 c-135 91 -392 284 -506 379 -53 45 -99
82 -101 82 -2 0 -64 -62 -137 -138z"/>
<path d="M6990 5103 c-91 -80 -390 -305 -521 -393 l-97 -65 -7 -65 c-14 -141
-66 -483 -95 -619 -16 -80 -28 -147 -25 -149 7 -8 153 -41 292 -67 595 -111
1021 -49 1166 171 39 58 60 153 52 228 -27 242 -216 551 -544 888 -73 76 -136
138 -140 137 -3 0 -40 -30 -81 -66z"/>
<path d="M4125 4453 c2 -16 12 -77 21 -138 17 -118 59 -346 75 -407 l10 -37
204 69 c112 39 239 84 282 101 43 17 88 35 101 40 19 7 1 19 -135 90 -172 89
-392 210 -491 271 -34 21 -64 38 -67 38 -2 0 -2 -12 0 -27z"/>
<path d="M6045 4441 c-88 -55 -307 -177 -488 -270 -136 -71 -154 -83 -135 -90
13 -5 58 -23 101 -40 43 -17 170 -62 282 -100 179 -61 205 -68 209 -53 13 40
66 326 80 432 9 63 19 125 21 138 7 29 1 28 -70 -17z"/>
<path d="M4995 2675 c-75 -30 -155 -111 -179 -181 -48 -142 18 -296 159 -367
156 -78 356 -12 434 145 58 115 37 232 -58 329 -97 98 -229 126 -356 74z"/>
</g>
</svg>
